# xmcd
#
# Track frame offsets:
#	150
#	13812
#	28292
#	45007
#	59375
#	73332
#	86432
#	100685
#	112645
#	126690
#	141222
#	156120
#
# Disc length: 2273 seconds
#
# Revision: 2
# Processed by: cddbd v1.5.1PL2 Copyright (c) Steve Scherf et al.
# Submitted via: audiograbber 1.83.01
#
DISCID=9e08df0c
DTITLE=Jeri Southern - You better go now
DYEAR=1999
DGENRE=
TTITLE0=You better go now
TTITLE1=Give me time
TTITLE2=Something I dreamed last night
TTITLE3=The man that got away
TTITLE4=When I fall in love
TTITLE5=Just got to have him around
TTITLE6=Dancing on the ceiling (he dances on my ceiling)
TTITLE7=Speak softly to me
TTITLE8=What good am I without you
TTITLE9=I thought of you last night
TTITLE10=That ole devil called love
TTITLE11=Remind me
EXTD=
EXTT0=
EXTT1=
EXTT2=
EXTT3=
EXTT4=
EXTT5=
EXTT6=
EXTT7=
EXTT8=
EXTT9=
EXTT10=
EXTT11=
PLAYORDER=
